<svg id="Layer_1" data-name="Layer 1" xmlns="http://www.w3.org/2000/svg" viewBox="0 0 305.52 259.31"><defs><style>.cls-1{fill:#f57d20;}.cls-1,.cls-10,.cls-16,.cls-19,.cls-20,.cls-21,.cls-22,.cls-23,.cls-24,.cls-6,.cls-8{isolation:isolate;}.cls-1,.cls-24{opacity:0.56;}.cls-2{fill:#284548;}.cls-3{fill:#2c5259;}.cls-4{fill:#274b48;}.cls-5{fill:#2c575b;}.cls-10,.cls-15,.cls-20,.cls-6,.cls-8{fill:#231f20;}.cls-6{opacity:0.29;}.cls-21,.cls-7{fill:#bd792a;}.cls-8{opacity:0.32;}.cls-9{fill:#f1f1f2;stroke:#e6e7e8;}.cls-13,.cls-9{stroke-miterlimit:10;}.cls-12,.cls-13,.cls-14,.cls-9{stroke-width:0.5px;}.cls-10{opacity:0.07;}.cls-11{fill:#f9d861;}.cls-12,.cls-13{fill:#e6e7e8;}.cls-12,.cls-13,.cls-14{stroke:#808184;}.cls-12,.cls-14{stroke-linejoin:round;}.cls-14{fill:#d0d2d3;}.cls-16,.cls-18,.cls-19{fill:#7d3d28;}.cls-16,.cls-23{opacity:0.28;}.cls-17{fill:#b7a5b5;}.cls-19{opacity:0.51;}.cls-20{opacity:0.19;}.cls-22,.cls-23{fill:#161717;}.cls-24{fill:#3b2314;}</style></defs><path class="cls-1" d="M194.7,295.1c19.7,5.5,30-28.6,64.3-33.7,13.6-2,24.8,1.5,28.9-5.4,4-6.6-3.7-14.5,1-22.5,3.5-6,9.5-4.3,18.4-10.2,13-8.6,17.3-23.4,18-25.7,3.6-12.4-1.9-14.3-.6-36.6.9-15.3,3.7-17.9,1-24.5-4.2-10.3-13.1-9.4-20.4-19.4-9.6-13-1.1-23.4-7-34.5-12.1-23-62.9-20.6-83.9-19.7-32.5,1.5-35.2,8.3-54.1,4.1-25.3-5.7-26.4-19.3-53.1-26.6-7.8-2.1-39-10.7-61.7,6.5C27.6,60.6,24.8,82.8,22.4,98.7c-5.2,35,10,62.9,14.3,70.5,12.8,22.7,22.8,21.5,27.6,39.8,6.4,24.3-8.7,35.5,0,55.1,5.4,12.2,18.6,24.4,33.5,26.9C146.2,290.2,135.8,266.5,194.7,295.1Z" transform="translate(-21.33 -36.39)"/><path class="cls-2" d="M275.6,285.1H91.5a3.76,3.76,0,0,1-3.7-3.7V264a3.76,3.76,0,0,1,3.7-3.7H275.6a3.76,3.76,0,0,1,3.7,3.7v17.4A3.76,3.76,0,0,1,275.6,285.1Z" transform="translate(-21.33 -36.39)"/><path class="cls-3" d="M276.2,213.6H90.9v-1.4a6.44,6.44,0,0,1,6.4-6.4h173a5.91,5.91,0,0,1,5.9,5.9v1.9Z" transform="translate(-21.33 -36.39)"/><rect class="cls-4" x="69.57" y="176.91" width="185.3" height="19.1"/><rect class="cls-5" x="69.57" y="195.11" width="185.3" height="28.8"/><path class="cls-6" d="M221.1,283.1a15.87,15.87,0,0,0,5.7-8c1.8-6.4-2.9-8.6-1.3-16.5.6-2.9,1.8-5.6,1.1-9.9a17,17,0,0,0-.9-3.6,35.35,35.35,0,0,0,4.2.8c4,.5,10.6,1.2,13.8-2.3,2.3-2.5,2-6.1,1.9-8.2a21.64,21.64,0,0,0-9.2-15.8c-8.5-5.5-16.3,2.5-36.9,6.5-18.1,3.5-32.7,1.3-56.1,6.6-2.6.6-7.8,1.9-10.8,6.3-3.4,5-3.6,13.7.4,18.8,1.8,2.3,3.4,2.6,4,4.9,1.1,4.1-3.1,6.4-2.8,9.7.4,5.8,14.1,10.1,24.5,11.6,7.1,1,5.8-.2,27.8.2,7.7.1,11,.4,17.5.1A156.26,156.26,0,0,0,221.1,283.1Z" transform="translate(-21.33 -36.39)"/><path class="cls-7" d="M125.7,286.4c.4.7,1.8,0,4.5.5,2.4.5,2.6,1.2,4.1,1.1s2-.8,3.9-1.6c1.2-.5,2.2-.7,5.2-.9,7.5-.6,9.4-.1,13.5-1a37.87,37.87,0,0,0,4.1-1.2,12.92,12.92,0,0,0,2.9-1.9c3.9-3.5,5.4-9.6,3.8-10.9-1-.8-2.7.4-5.6,1.8-2,.9-7.7,2.1-19.1,4.4-7.7,1.6-10.9,2.2-14.2,5C127,283.3,125.2,285.5,125.7,286.4Z" transform="translate(-21.33 -36.39)"/><path class="cls-8" d="M123,286.7c.4.9,4.2.1,6.3-.4,3.8-1,5.5-2.3,8.8-4a57.53,57.53,0,0,1,12.6-4.5,71.61,71.61,0,0,1,10.4-1.7c2.2-.2,4.1-.3,5.5-.4a11.7,11.7,0,0,0-3.3-2.3c-1.8-.8-4.5-1.5-13.3.4a80.23,80.23,0,0,0-10.3,2.9,53.85,53.85,0,0,0-11.5,5.5C126.3,283.5,122.6,285.8,123,286.7Z" transform="translate(-21.33 -36.39)"/><path class="cls-9" d="M243.6,241.4a4.65,4.65,0,0,1-2.6.6c-1.2.1-2.1.1-2.1.1-3.8-.2-13.4-.1-14.6-.1-4.3,0-7.1.4-9,.5-13,1-23-3.8-40.2-4.8-12.8-.7-26.6,1-38.9-2.5a15.43,15.43,0,0,1-1.7-.5,16.56,16.56,0,0,1-2.4-1.1,12.05,12.05,0,0,1-2.3-1.8c-3-3-3.6-7.6-4.9-16.8a72.78,72.78,0,0,1-.4-10.2c.1-3.8.3-5.6,1.6-6.7.7-.7,1.6-.9,4.9-1.4s5-.7,6.3-.8h.7a51.28,51.28,0,0,1,6.5.2c9.1.6,22.4,2.4,31.3,2.2,10.5-.3,9.8-3.2,26.3-6.2a134.16,134.16,0,0,1,31.9-2.2,19.59,19.59,0,0,1,5.4,6.9c3.5,7.6.9,15,.1,17.1a27.71,27.71,0,0,1-3.2,6.1c.5.7,5.4,7.9,7.1,13.2a18.21,18.21,0,0,1,.8,5.2C244.4,240.3,244.1,241,243.6,241.4Z" transform="translate(-21.33 -36.39)"/><path class="cls-10" d="M143.9,223.7c-2.6,4.9-6.8,9.8-9.5,10.9a2,2,0,0,1-1.5.1,1.55,1.55,0,0,1-.8-1.2c-.8-2.7.5-8.7,1.1-11.6,1.3-6.2,2.4-6.2,3-11.3.1-1.1.1-1.5.7-10.5a37.31,37.31,0,0,1,.4-4.3h.7a51.28,51.28,0,0,1,6.5.2,13,13,0,0,1,1.6,4.4C147.2,206.3,148.7,214.6,143.9,223.7Z" transform="translate(-21.33 -36.39)"/><path class="cls-11" d="M161.7,162.9a91.11,91.11,0,0,1,13.6,7.9c2.9,2.1,5.2,4,6.9,5.4,1.1-1.9,2.2-3.7,3.3-5.6,1.2.6,2.4,1.1,3.6,1.7,3.3,1.6,6.5,3.2,9.8,4.8a22.9,22.9,0,0,0-.3,10.3c.9,4.4,2.8,6.1,2.3,8.7-.4,2.1-2.2,4.8-8.9,7.3a28.66,28.66,0,0,0-3.2,9.4c-.5,3-1.3,8.3,1.1,13.8,1.2,2.8,2.3,3.4,2,4.5-1.2,4.1-17.3,2.6-18,2.5-7.9-.8-20.8-3.6-35.9-15a11.67,11.67,0,0,1,0-4.6,30.62,30.62,0,0,1,1.4-3.8,29.87,29.87,0,0,0,1.1-5,119.72,119.72,0,0,0,.5-15.4c0-.1-.2-7.9,0-16.7a13.52,13.52,0,0,1,1.6-6.9,14.09,14.09,0,0,1,4.7-5,13.55,13.55,0,0,1,3.4-1.6C153.3,159.1,155.8,159.9,161.7,162.9Z" transform="translate(-21.33 -36.39)"/><path class="cls-10" d="M234.5,189.5c.4.7-7.3,6-11.9,9a140.73,140.73,0,0,1-18.4,10.3c-1.1.5-4.9,2.1-12.6,5.3-7.5,3.1-8.1,3.3-9,3.6-1.5.4-14.1,3.8-17.7-1.5a6.43,6.43,0,0,1-.9-4.5,31,31,0,0,0,11.4,1.5c8.9-.6,11.6-4.9,24.9-10.6,8.9-3.9,9-2.5,21-7.5C229.3,191.7,234.2,189,234.5,189.5Z" transform="translate(-21.33 -36.39)"/><path class="cls-7" d="M192.3,165.2c0,1.3,1.6,2.4,2.6,3a7.16,7.16,0,0,0,3.5,1.2,14.66,14.66,0,0,1,4.4,3.7c.3.4.8,1,1.4,1.9a16.31,16.31,0,0,0,2.3,2.3h-1.8c-2.3,0-4.5-.1-6.6-.2a50.81,50.81,0,0,1-1.4,5.6,58.73,58.73,0,0,1-2.2,6,7,7,0,0,1,2.3,3.1c1.3,3.6-.6,8.3-4.8,11.8,1.8-.2,3.6-.4,5.4-.5a41.34,41.34,0,0,1,6-8.7,44.53,44.53,0,0,1,22.7-13.2,3.47,3.47,0,0,0,2.2-1.3c.9-1.5-.3-3.5-.6-4-1-1.8-2.7-2.7-7.1-4.2-6.2-2.1-8.3-2-12.4-3.8A27.39,27.39,0,0,1,203,165c-.3-.8-.9-2.1-1.6-3.6-1.2-2.3-2.5-4.8-3.4-4.6s-.2,2-1.5,4.2C194.9,163.5,192.3,163.6,192.3,165.2Z" transform="translate(-21.33 -36.39)"/><path class="cls-12" d="M206.8,201.9v3.9L239.1,189v-5.7a17.22,17.22,0,0,1-2-.1c-3.7-.4-5.2-1.8-8-1.5a7.64,7.64,0,0,0-2.1.5,9.68,9.68,0,0,0-.9-.7c-1.1-.7-1.9-.7-3.7-1.2l-1.5-.5c-8.2,3.6-16.5,7.1-24.7,10.7,2.1,1.6,4.2,3.3,6.4,4.9C203.9,197.6,205.4,199.7,206.8,201.9Z" transform="translate(-21.33 -36.39)"/><path class="cls-13" d="M226.9,182.1c-8.2,4.4-16.3,8.8-24.5,13.3" transform="translate(-21.33 -36.39)"/><path class="cls-14" d="M206.8,205.9c-1.9-2.7-3.7-5.3-5.6-8l-4.5-4.8c-.2-.8-.4-1.7-.6-2.5,2.2,1.7,4.4,3.4,6.5,5.2l4.2,6.3Z" transform="translate(-21.33 -36.39)"/><path class="cls-15" d="M191.1,124.5a20,20,0,0,0-6.8.8c-4.7,1.6-7.4,5-9.9,8.3s-6.5,8.5-7,16.3a19.5,19.5,0,0,0,2,11.1,12.34,12.34,0,0,0,4.9,5.6c5,2.8,10.6.5,11.7.1,1.7-.7,2.7-1.5,6.6-4.9,5.7-5,8.6-7.5,9.1-8,5.7-6.9,7.5-20.2,1.6-25.7C199.7,124.7,193.7,124.5,191.1,124.5Z" transform="translate(-21.33 -36.39)"/><path class="cls-13" d="M206.8,201.9c10.8-6.2,21.5-12.4,32.3-18.6" transform="translate(-21.33 -36.39)"/><path class="cls-7" d="M186.1,172.7c.1-1.2-.5-1.8-1.1-3.1-1-2.2-1.9-6.1-.5-7.9s3.6-.3,6.9-1.2c6.3-1.8,9-10.1,9.8-12.5a24.33,24.33,0,0,0,.5-13.6c-.9-4.1-1.9-8.6-5.6-10.9-5.8-3.8-15.6-.4-20.2,5.2-2.2,2.6-3.1,6.1-5,13a45.31,45.31,0,0,0-2,10.4c-.1,2.1,0,4.1-.4,7.8-.1.5-.2,1.8-.5,4.2-.3,2-.5,3.7-.6,4.9,6.1,5.8,11.8,9.1,14.3,8.5a7.72,7.72,0,0,0,2-.9C183.8,176.4,185.9,174.9,186.1,172.7Z" transform="translate(-21.33 -36.39)"/><path class="cls-16" d="M186,158.32l-.13.55a.86.86,0,0,0-.6,0,.82.82,0,0,0-.25.15c-2.4-1.3-6.8-3.7-8.8-9.4a18.2,18.2,0,0,1-1-5.2v-1a3.08,3.08,0,0,1,.1-1c0-.3.1-.6.1-.9s.46,7.49,4.66,12.56A15.36,15.36,0,0,0,186,158.32Z" transform="translate(-21.33 -36.39)"/><path class="cls-7" d="M129.2,273.5a30,30,0,0,0,4.6-3.5c3.2-2.7,3.6-3.1,4.8-4.1a39.12,39.12,0,0,1,7.1-4.5c5.2-2.6,9.3-3.2,17.2-4.2,2.9-.4,4.7-.5,6.8.4a9.6,9.6,0,0,1,4.6,4.6c1.4,2.8,2,7.2-.3,9.5a7.18,7.18,0,0,1-3.4,1.6c-4.7,1.2-7,1.8-10.2,2-1.5.1-11.9.7-21.3,5.2-2,1-1.8,1-9.7,5.2-4.3,2.2-6.1,3.1-8.7,3.9a35.3,35.3,0,0,1-8.1,1.3c-3,.1-7.6.3-8.3-1.7a2.44,2.44,0,0,1,.4-2.2,15.23,15.23,0,0,1-.4-3.2c0-1.6,0-3.6,1.3-4.8a2.83,2.83,0,0,0,.6-.5c1.5-1.1,2.4-2,2.7-2.2,1.5-1.2,4.3-1.1,8.4-.9s4.4.6,6.4.3A19.11,19.11,0,0,0,129.2,273.5Z" transform="translate(-21.33 -36.39)"/><path class="cls-17" d="M164.1,274.4c-.3,1-1.1,1.2-2,3a11.48,11.48,0,0,0-1.1,5.9c1.4,0,3.4,0,6-.1,5-.1,8.2-.2,10.1-.2,7.2-.2,13.3,0,17.3.1,5.2.1,10.5-.1,15.7,0,4,.1,7.7.3,9.9-2.1a7.46,7.46,0,0,0,1.6-4.3c.8-6.1-2.1-11.5-3.8-14.2a18.59,18.59,0,0,0,3.5-4.8c.6-1.1,3.5-7.1,1.1-12.3-.4-.8-1.1-2-3.8-4.3a44.65,44.65,0,0,0-17.2-9.5,52.17,52.17,0,0,0-10.5-1.8,16.53,16.53,0,0,1-3.2.5c-3.5.2-6-.9-8.6-1.9-8.1-3.1-8-1.9-13.2-4.4-3.3-1.6-2.3-1.5-7.3-4.2-4.6-2.5-8-4.2-12.5-5.3a31.87,31.87,0,0,0-7.8-.9,31.43,31.43,0,0,0-3,5.2c-1.2,2.6-1.9,5.1-2.8,10.6-1.2,7.1-1.9,11.7-1.3,17.5a16.35,16.35,0,0,0,2.3,7.5,19.67,19.67,0,0,0,3.3,3.7,20.54,20.54,0,0,0,2.2,1.5c3.8,2.1,9.8,1.4,14.4,2.7C160.1,264.3,165.1,271.1,164.1,274.4Z" transform="translate(-21.33 -36.39)"/><path class="cls-7" d="M145.9,185.6c.4,1.4,1,3.4,1.9,5.7a59.31,59.31,0,0,0,5,9.7c2.2,3.6,5.4,8.4,9.6,14a5.91,5.91,0,0,0,2.4,2.3,6.59,6.59,0,0,0,2.8.5,47.76,47.76,0,0,0,15.8-3.9c4.7-2.2,3.8-2.4,7.3-3.8,8.1-3.2,10-3.7,10-3.7a5.76,5.76,0,0,0,3.2-2.2,11.39,11.39,0,0,0,1.4-2.6c.5-1.2.4-1.5.8-2.3a4.91,4.91,0,0,1,2.2-1.9,23.46,23.46,0,0,0,4.1-3.3c.1,0,.4-.3.5-.9s-.3-.9-.3-1a1.33,1.33,0,0,0,.4-1,1.05,1.05,0,0,0-.4-.9.85.85,0,0,0,.2-.6,1.33,1.33,0,0,0-.3-.9,1.31,1.31,0,0,0-1.2-.3,2.07,2.07,0,0,0-.2-.6,1.62,1.62,0,0,0-1.3-.4,5.6,5.6,0,0,0-2.7.8c-.6.2-1.4.6-2.5,1a1.33,1.33,0,0,0-.3-.5c-.8-.5-2.3.6-2.5.7-1.3.9-2,2.3-2.7,4.6-1.5,4.5-.7,4.5-1.5,5.8-1.6,2.6-4.8,3.5-9.1,4.7a23.59,23.59,0,0,1-3.1.7,39.7,39.7,0,0,1-11.9.3,16.27,16.27,0,0,1-5.3-6.2c-1.2-2.5-1.3-4.3-2.4-10.1-.6-2.9-1.1-5.3-1.5-6.8a34,34,0,0,1-9,.1c-2.1-.2-4.1-.7-6.2.3A7.5,7.5,0,0,0,145.9,185.6Z" transform="translate(-21.33 -36.39)"/><path class="cls-15" d="M175.7,142.4c.1.2.2.5.3.7a2.19,2.19,0,0,0-.8.3.1.1,0,0,0-.1.1,3.08,3.08,0,0,1,.1-1c0-.3.1-.6.1-.9A3,3,0,0,1,175.7,142.4Z" transform="translate(-21.33 -36.39)"/><path class="cls-18" d="M198.2,138.3c-.1,0-.1,0-.2.1h0C198.1,138.3,198.1,138.3,198.2,138.3Z" transform="translate(-21.33 -36.39)"/><path class="cls-7" d="M193.9,145.9a6.89,6.89,0,0,1-.8-.3,1.1,1.1,0,0,0-.8,0,.19.19,0,0,0,0,.3c.1.3.8.3,1.3.1C193.8,146,193.9,146,193.9,145.9Z" transform="translate(-21.33 -36.39)"/><path class="cls-19" d="M193.9,145.9a6.89,6.89,0,0,1-.8-.3,1.1,1.1,0,0,0-.8,0,.19.19,0,0,0,0,.3c.1.3.8.3,1.3.1C193.8,146,193.9,146,193.9,145.9Z" transform="translate(-21.33 -36.39)"/><path class="cls-20" d="M222.4,255.4a18.68,18.68,0,0,1-3.1,3.9,23.61,23.61,0,0,1-4.8,3.4c-3.3,1.7-14.4,2.9-16.8,3.2-4.7.6-8.5,1.5-16.2,3.4-4.6,1.1-8.3,2.2-10.7,3,1.6-.2,4-.6,7-1.1,7.5-1.3,9.1-2,15.2-3.1,5-.9,4-.4,13.1-1.9,6.2-1,10.4-1.8,13.3-5.2a14,14,0,0,0,1.6-2.5A19.07,19.07,0,0,0,222.4,255.4Z" transform="translate(-21.33 -36.39)"/><path class="cls-20" d="M149.6,260.3c-.1-.2,4.6-2.3,10.1-4.2,4-1.4,4.7-1.4,10.3-3.2,4.1-1.4,4.9-1.8,8.6-3,2.8-1,7-2.3,12.3-3.8a3.05,3.05,0,0,0,1.3-.9,3.71,3.71,0,0,0,.9-2.5,3.58,3.58,0,0,1,.6,1.1,2.59,2.59,0,0,1-.3,2.2q.9.15,2.1.3a23.36,23.36,0,0,1,2.8.9c-.6,0-1.4-.1-2.3-.1-1.1,0-2.3,0-3.3.1a16,16,0,0,0-4,.9c-4.2,1.5-8.5,2.5-12.8,3.9-6,2-4.9,1.4-12.8,3.9C154.4,258.6,149.7,260.4,149.6,260.3Z" transform="translate(-21.33 -36.39)"/><path class="cls-21" d="M199.5,140.94c0,.16,0,.32-.05.48a6.82,6.82,0,0,1-.64,2c0,.2,0,.4-.07.59s0,.26-.05.39l-.05.31v.09l0,.2s0,0,0,.07v0l-.36-.08-.07,0-.25-.08,0,0a1,1,0,0,1,.14.16,1.58,1.58,0,0,1,.19.36c0,.05,0,.11,0,.16s0,.11,0,.17a2.12,2.12,0,0,1,0,.64v0l0,.11-.06.26,0,.14a.64.64,0,0,1,0,.07,2.68,2.68,0,0,1-.07.27v-.13a5.06,5.06,0,0,0-.26-1.6c0-.14-.11-.29-.17-.43a3.42,3.42,0,0,0-.21-.43l-.15-.25c-.1-.15-.21-.3-.32-.44h0l-.23-.14v-.32l-.12-.18-.07-.1h0a4.48,4.48,0,0,1-.5-.47l-.09-.09a.13.13,0,0,0,0-.06c0-.16,0-.31,0-.43s0-.36,0-.46c.08.12.17.24.25.34V142a1.72,1.72,0,0,1,0-.24.08.08,0,0,1,0-.05.35.35,0,0,1,0-.11.5.5,0,0,1,.05-.13l.06-.12v0l.12-.2s0,0,0,0l.07-.08,0,0,.06-.07,0,0,.17-.17.05,0a2.46,2.46,0,0,1,.29-.21h0l.24-.13c.59-.24,1.47-.29,1.82.17a.7.7,0,0,1,.13.24A1.13,1.13,0,0,1,199.5,140.94Z" transform="translate(-21.33 -36.39)"/><path class="cls-10" d="M236,221.3a12.19,12.19,0,0,0-5,1.1,25.45,25.45,0,0,0-6.1,4.2,13.16,13.16,0,0,1,6.8-6.1c-1-.3-2.3-.6-3.8-.9a42.66,42.66,0,0,0-5.4-.7,37.72,37.72,0,0,0-7.2.3,22.4,22.4,0,0,1,3.1-.8,26.93,26.93,0,0,1,6.8-.3,43.35,43.35,0,0,1,5.5.6c.9.1,1.7.3,2.3.4a14.61,14.61,0,0,1-2.5-1.9,12,12,0,0,1-2.1-2.3,8.62,8.62,0,0,1-1.2-2.7,10.57,10.57,0,0,0,1.8,2.4,23.29,23.29,0,0,0,4,3.1c1.3.9,1.7,1.1,2.3,1a3.46,3.46,0,0,0,1.9-1.3,8.63,8.63,0,0,0,1.5-2s-.5.8-2.4,4.2c.7,1.1,1.5,2.3,2.2,3.4a3,3,0,0,0-1.7-1.6A2,2,0,0,1,236,221.3Z" transform="translate(-21.33 -36.39)"/><path class="cls-7" d="M199.56,140.36v.13s0,.09,0,.13h0c0,.05,0,.09,0,.14s0,0,0,0a.59.59,0,0,1,0,.14c0-.05-.05-.1-.08-.14a.83.83,0,0,0-.16-.19,1.87,1.87,0,0,0-2-.1h0a2.46,2.46,0,0,0-.29.21l-.05,0a1.35,1.35,0,0,0-.17.17l0,0-.06.07,0,0-.07.08s0,0,0,0l-.12.2v0l-.06.12a.5.5,0,0,0-.05.13.35.35,0,0,0,0,.11.08.08,0,0,0,0,.05,1.72,1.72,0,0,0,0,.24v.12a2.05,2.05,0,0,0,.22.92,2.18,2.18,0,0,0,.14.25h0l.07.1.12.18.23.35a4.15,4.15,0,0,0,.55.69l0,0c.19.18.17.12.31.26l0,0,.14.17a2.76,2.76,0,0,1,.19.35c0,.05,0,.11,0,.16s0,.11,0,.17a2.12,2.12,0,0,1,0,.64v0l0,.11-.06.26,0,.14a.64.64,0,0,1,0,.07,2.68,2.68,0,0,1-.07.27c0,.07,0,.12,0,.2-.11.41-.23.82-.35,1.23h0c-.05.18-.11.36-.17.53h0c-.07.22-.13.44-.21.65h0a27.65,27.65,0,0,1-2.29,4.85,3.79,3.79,0,0,1-.2.34c-.11.18-.22.36-.34.53-.2.33-.42.65-.64,1,0,0,0,0,0,.06-.21.29-.42.58-.64.86,0-.28.36-1.38-.09-2.21l-.09-.14-.06-.08a3.64,3.64,0,0,0-1.38-1,4.14,4.14,0,0,1-1.44-1.15c-.24-.3-.53-.79-.42-.9s.52.26,1.39.62a7.5,7.5,0,0,0,1.56.43c.9.16,1.38.23,1.7-.07a1.4,1.4,0,0,0,.32-.79,2,2,0,0,0,0-.33c0-.18,0-.3-.05-.41s0,0,0,0a0,0,0,0,1,0,0h0a2,2,0,0,0,1.34-.72,1.38,1.38,0,0,0,.25-.48.35.35,0,0,0,0-.13.7.7,0,0,0,0-.14,1.34,1.34,0,0,0-.07-.55s0-.08-.05-.13A1.81,1.81,0,0,0,196,149h0a5.1,5.1,0,0,0-1.21-1.56.44.44,0,0,1,.13-.78c.22-.1.33,0,.72,0a1.36,1.36,0,0,0,1-.26,1,1,0,0,0,.22-.4c.15-.57-.36-1.06-.78-1.91a5.34,5.34,0,0,1-.45-1.25c0-.14-.05-.26-.07-.36a3.43,3.43,0,0,1,.25-2.31,2.83,2.83,0,0,1,.93-1,3.23,3.23,0,0,1,1-.47l.29,0a11.42,11.42,0,0,1,1,1C199.22,140,199.4,140.17,199.56,140.36Z" transform="translate(-21.33 -36.39)"/><path class="cls-22" d="M193.5,137A1,1,0,0,1,192,137l-.07-.09,0-.08v0a7.14,7.14,0,0,0-4.56-2.92,7,7,0,0,0-3.54.27c-.24.09-.47.18-.7.29a6.48,6.48,0,0,0-.81.46l-.29.19.29-.27a7.68,7.68,0,0,1,.78-.63l.27-.18h0a7,7,0,0,1,5-.95,7.08,7.08,0,0,1,4,2.26A7.57,7.57,0,0,1,193.5,137Z" transform="translate(-21.33 -36.39)"/><path class="cls-22" d="M191,139.45h0l-.11.05h0a5.71,5.71,0,0,1-5.79-1.15l-.08-.07a1,1,0,0,0-1.35.05,5.94,5.94,0,0,0,3.55,2.16,5.75,5.75,0,0,0,4-.76h0l.07,0h0l0-.05a.34.34,0,0,0-.24-.18Z" transform="translate(-21.33 -36.39)"/><path class="cls-22" d="M200.77,139.34l-.11.12,0,0-.12.12s0,0,0,0l-.07.07-.08.07a0,0,0,0,1,0,0l-.15.14-.2.17-.11.09,0,0-.06,0,0,0-.16.12,0,0h-.05a4.32,4.32,0,0,0-.63-.24l-.42-.1a4.2,4.2,0,0,0-1.5,0,1,1,0,0,1,0-.42,1.06,1.06,0,0,1,.52-.75h0a2,2,0,0,1,.26-.09h0l.11,0,.16,0h0a3.49,3.49,0,0,1,.44-.05,3.18,3.18,0,0,1,.81,0l.27.07a3.12,3.12,0,0,1,1.14.56Z" transform="translate(-21.33 -36.39)"/><path class="cls-23" d="M199.56,140.36v.13s0,.09,0,.13h0c0,.05,0,.09,0,.14s0,0,0,0a.77.77,0,0,1,0,.15,1,1,0,0,0-.08-.15.83.83,0,0,0-.16-.19,1.87,1.87,0,0,0-2-.1h0a2.46,2.46,0,0,0-.29.21l-.05,0a1.35,1.35,0,0,0-.17.17l0,0-.06.06,0,0-.07.08s0,0,0,0l-.12.2v0l-.06.12a.5.5,0,0,0-.05.13.35.35,0,0,0,0,.11.08.08,0,0,0,0,.05,1.72,1.72,0,0,0,0,.24v.13a2,2,0,0,0,.22.91,2.18,2.18,0,0,0,.14.25l.07.1.12.18.06.08.17.27a4.15,4.15,0,0,0,.55.69.08.08,0,0,0,0,0c.19.18.17.12.31.26h0l0,0,.14.17a2.76,2.76,0,0,1,.19.35c0,.05,0,.11,0,.16s0,.11,0,.17a2.12,2.12,0,0,1,0,.64v0l0,.11-.06.26,0,.14a.64.64,0,0,1,0,.07,2.68,2.68,0,0,1-.07.27c0,.07,0,.12,0,.2-.11.41-.23.82-.35,1.23h0c-.05.18-.11.36-.17.53h0a0,0,0,0,1,0,0c-.07.21-.13.43-.21.64a27.65,27.65,0,0,1-2.29,4.85,3.79,3.79,0,0,1-.2.34c-.11.18-.22.36-.34.53-.2.33-.42.65-.64,1,0,0,0,0,0,.06-.21.29-.42.58-.64.86,0-.28.36-1.38-.09-2.21l-.09-.14-.06-.08a3.64,3.64,0,0,0-1.38-1,4.14,4.14,0,0,1-1.44-1.15c-.24-.3-.53-.79-.42-.9s.52.26,1.39.62a7.5,7.5,0,0,0,1.56.43c.9.16,1.38.23,1.7-.07a1.4,1.4,0,0,0,.32-.79,2,2,0,0,0,0-.33c0-.18,0-.3-.05-.41v0a0,0,0,0,1,0,0h0a2,2,0,0,0,1.34-.72,1.38,1.38,0,0,0,.25-.48.35.35,0,0,0,0-.13.7.7,0,0,0,0-.14,1.34,1.34,0,0,0-.07-.55s0-.08-.05-.13A1.81,1.81,0,0,0,196,149h0a5.1,5.1,0,0,0-1.21-1.56.52.52,0,0,1-.19-.38.54.54,0,0,1,.32-.4c.22-.1.33,0,.72,0a1.36,1.36,0,0,0,1-.26,1,1,0,0,0,.22-.4c.15-.57-.36-1.06-.78-1.91a5.34,5.34,0,0,1-.45-1.25c0-.14-.05-.26-.07-.36a3.43,3.43,0,0,1,.25-2.31,2.93,2.93,0,0,1,.93-1,3.23,3.23,0,0,1,1-.47l.29,0a11.42,11.42,0,0,1,1,1C199.22,140,199.4,140.17,199.56,140.36Z" transform="translate(-21.33 -36.39)"/><path class="cls-15" d="M184.37,158.86a3.44,3.44,0,0,0-1.11,1.3c-.32.69-.15,1.16-.14,2.58,0,3.66.08,4.53.67,5.47a3.53,3.53,0,0,0,1,1.07c.52.3,1.05.31,2.54.3a7.91,7.91,0,0,0,2.93-.27c1.11-.62,1-1.64,2.47-2.32.44-.2.41-.09,1-.34a4.73,4.73,0,0,0,2.43-1.82c.51-1-.12-1.41.49-2.81a2.34,2.34,0,0,1,1-1.26c.46-.22.75-.08,1.52-.15a5.86,5.86,0,0,0,1.9-.53c1.16-.58,1-1.18,2.08-1.78.86-.47,1-.15,2.13-.69s1-.86,1.71-1.06c1.27-.35,2.15.56,2.62.11s-.26-1.61.27-2c.26-.22.53,0,1.63-.07.72,0,1.08-.07,1.26-.27.46-.54-.5-1.55,0-2.39.1-.19.42-.39,1.06-.8.84-.54,1.12-.57,1.21-.87s-.31-.58-.45-1.3a2.05,2.05,0,0,1,.42-1.74c.4-.43.73-.21,1.71-.61a3.3,3.3,0,0,0,1.78-1.37c.29-.55.49-1.47.08-1.9s-.91-.06-1.49-.57c-.34-.3-.25-.5-.57-.68-.56-.32-1.15.15-1.36-.11s0-.7.3-1,.92,0,1.18-.38a.89.89,0,0,0,0-.84c-.18-.39-.5-.36-.65-.68s.07-.64.27-1.18a6.61,6.61,0,0,0,.34-1.94,3.64,3.64,0,0,0-.15-2.08c-.39-.73-.91-.63-1.14-1.3s.27-1,0-1.63c-.12-.26-.24-.27-1.33-1.18-.69-.57-.8-.7-.8-.87,0-.43.68-.45,1-1s-.19-1-.34-2.39.31-1.58,0-2.24a3.4,3.4,0,0,0-2.2-1.44c-.52-.11-1-.09-1-.3s.46-.46.61-1a2,2,0,0,0-.49-1.56c-.71-1-1.35-.86-1.68-1.63s.16-.94-.07-1.83a2.59,2.59,0,0,0-1.33-1.71c-.06,0,.23.4.42,1.14.14.56.23.92,0,1.22a1,1,0,0,1-1.32.3c-.3-.25,0-.66-.23-1.29s-.5-.56-1.37-1.37-1.33-1.23-1.4-1.82.41-1,.22-1.56-.74-.65-1.4-1c-1.49-.75-1.16-1.4-2.85-2.59a5.61,5.61,0,0,0-3.08-1.29c-1,0-1.29.39-2,.16-1-.35-.85-1.32-2-2.18a5.15,5.15,0,0,0-3.35-.83c-1.23.12-1.44.62-2.27.42-1-.24-1-1-2.06-1.44s-1.26.25-2.77.11a28.24,28.24,0,0,1-3.19-.91c-.95-.25-1.68-.42-2-.08s0,.61-.27.91-.79.29-1.29.27c-1.05,0-1.27-.42-1.79-.22s-.35.48-.91.79-1.23.07-1.48.42.25.88,0,1.25c-.13.2-.44.31-1.71.19a12,12,0,0,0-2.51-.26c0,.14.84.37,1,1a1,1,0,0,1-.6,1.09c-.54.19-.86-.51-2-.75-.07,0-1.31-.28-1.59.18s.29.72.26,1.6c0,.45-.18,1.12-.49,1.18s-.69-1.18-1.52-1.29c-.62-.09-.87.58-1.71.53-.58,0-.93-.38-1-.27s.68.71.79,1.63c.08.6-.22.67-.42,1.68-.23,1.25.12,1.77-.26,2.09s-1.1-.23-1.6.15-.06.89-.49,1.86-1,1-.91,1.52,1,.85,1,1.14-1.83-.12-2.36.64a7.37,7.37,0,0,0,0,2.09,2.77,2.77,0,0,1-.08,1.14,2.53,2.53,0,0,1-1,1.06c-.15.13-.76.69-2,1.83-.81.74-1.14,1.09-1.07,1.48s.27.33.3.64-.32.61-.53,1.14c-.33.88.31,1.46-.07,1.9s-.52.07-1.14.38a2.73,2.73,0,0,0-1.1,1.07,2.29,2.29,0,0,0-.38,1.67c.15.64.6.62.87,1.33a2.25,2.25,0,0,1-.11,1.86c-.39.63-.88.44-1.75,1.1a3.45,3.45,0,0,0-1.47,2.35,3.14,3.14,0,0,0,.63,1.86c.51.69,1.06.84,1.07,1.34s-.29.4-.53.94,0,1-.12,2-.43.95-.42,1.67a2.73,2.73,0,0,0,1.33,2.24c.42.23,1,.36,1.11.19s-.32-.48-.5-1.14,0-1.6.27-1.63.23.46.87,1.32c.36.49.53.58.57.88s-.23.58-.38,1.14a2.66,2.66,0,0,0,.31,1.9,2.84,2.84,0,0,0,1.13,1.06c.76.38,1.28.19,1.48.57s-.22.7,0,1.14,1.16.4,1.37.95a1.06,1.06,0,0,1-.2.84c-.35.59-.86.48-1.25.91-.71.78-.15,2.36,0,2.66a3.22,3.22,0,0,0,1.1,1.63c1,.67,1.66.13,2.7.87.63.45.47.71,1.07,1s1.12.06,1.86.49c.42.26.39.42.75.54.65.2,1.08-.18,1.34.07s.12.69-.05,1c-.24.47-.72.58-.68.68s.62,0,1.1-.07a3.1,3.1,0,0,0,1.26-.54c.74-.59.55-1.29,1.1-1.47.3-.11.61,0,1.25.34s.79.53,1.37.8a3.32,3.32,0,0,0,1.52.37c.55,0,.65-.22,2.05-.91,1.14-.56,1.31-.54,1.56-.87a2.45,2.45,0,0,0,.34-1.75c-.12-.75-.49-.78-.46-1.29.06-.8,1-1,.92-1.75,0-.42-.35-.54-.27-.91s.45-.39.72-.76c.52-.7,0-1.86,0-2.05a7.67,7.67,0,0,0-1.18-1.59c-.49-.6-.64-.72-.64-1,0-.49.48-.57.91-1.33s.12-1,.53-1.67.77-.56,1.18-1.26a1.94,1.94,0,0,0,.19-1.93c-.13-.17-.2-.12-.83-.54a2.47,2.47,0,0,1-.77-.6,1.35,1.35,0,0,1,.07-1.26.86.86,0,0,1,.24-.26c.4-.29.76.08,1.44-.23.33-.15.33-.28.66-.48,0-.36,0-.71.06-1s.06-.63.09-.91c.16.33.31.64.44.93l.31.66a2.54,2.54,0,0,1,.49,0c.84,0,1,.54,1.82.57.64,0,1.19-.22,1.19-.34s-.39,0-.88-.26a1.42,1.42,0,0,1-.8-.76,1.09,1.09,0,0,1,.23-1.07c.22-.2.38-.08.65-.3s.19-.46.49-.87.62-.65.76-.57,0,.33,0,.95a5,5,0,0,0,.11,1c.07.3.2.87.38.88s.17-.24.46-.8c0,0,.15-.31.38-.69a7.9,7.9,0,0,1,1.14-1.25,3.56,3.56,0,0,0,.87-1.48c.21-.86-.26-1,0-1.9.13-.52.33-.63.56-1.52.17-.62.13-.81,0-.95a.47.47,0,0,0-.34-.2l-.48-.15-.12-.1a1.59,1.59,0,0,1-.27-1.22c0-.62.27-.68.22-1.1-.06-.66-.68-1-.57-1.18s.66.17,1.37,0a2.26,2.26,0,0,0,1-.61c.6-.58.5-1,.95-1.18s.56.14,1.07,0,.6-.77,1.29-1a1.86,1.86,0,0,1,1.33.07c.45.2.46.45,1.1.83.08.06.77.47.91.31s-.38-.65-.23-.87.59-.09.95.07c.58.27.62.67,1.14,1.22a5.86,5.86,0,0,0,1.86,1.18c1,.45,1.2.32,1.48.68.48.59.07,1.16.57,1.67s.83.17,1.26.65a3.13,3.13,0,0,1,.45,1.21,12.81,12.81,0,0,0,.31,1.29c.37.9.93.79,1.13,1.48s-.15.81-.24,1.61a.86.86,0,0,0,.17.65.82.82,0,0,0,.8.27,0,0,0,0,1,0,0,.27.27,0,0,1-.07.08l-.08.08h0l-.15.15c-.08.06-.14.12-.22.17l-.1.09,0,0-.06,0-.24.15,0,.38v0c0,.05,0,.1,0,.15s0,.33-.05.5a7.21,7.21,0,0,1-.67,2.09,6.17,6.17,0,0,1-.08.62c0,.14,0,.27,0,.4l0,.33s-.21.34-.45.31a.1.1,0,0,1-.07,0l-.07.14a1.63,1.63,0,0,1,.19.37.64.64,0,0,1,0,.17,1,1,0,0,1,0,.18,1.73,1.73,0,0,1,0,.66v0s0,.08,0,.12,0,.17-.06.27a.54.54,0,0,0,0,.15l0,.06a2.46,2.46,0,0,1-.07.29,1.94,1.94,0,0,1-.05.2c-.11.43-.23.86-.36,1.28h0l-.18.56h0c-.07.23-.15.45-.23.67h0a29.51,29.51,0,0,1-2.37,5l-.22.35c-.11.18-.22.37-.35.55-.21.34-.44.67-.67,1a.21.21,0,0,1,0,.06l-.66.89c-.12.15-.22.29-.34.43h0a0,0,0,0,1,0,0h0c-.12.16-.24.3-.37.45h0a2.82,2.82,0,0,1-2.2.81c-.24,0-.48-.09-.71-.15q-.72-.17-1.41-.39c-.53-.17-1.06-.36-1.57-.58h-.2Z" transform="translate(-21.33 -36.39)"/><path class="cls-24" d="M187.6,148.7a.35.35,0,0,0,.1.2,4.34,4.34,0,0,0,1.9,1.1h1.1a6.54,6.54,0,0,1,3,.5,3.32,3.32,0,0,1,1.1.8,1.73,1.73,0,0,0,1.7-1.5,2.43,2.43,0,0,0-.3-1.1,7.41,7.41,0,0,0-3.6-.5l-1.1.2a10.33,10.33,0,0,1-2.7.3.6.6,0,0,1-.4-.1c-.2-.1-.4-.1-.6-.2s-.2-.1-.3,0C187.6,148.4,187.6,148.6,187.6,148.7Z" transform="translate(-21.33 -36.39)"/><path class="cls-22" d="M200.15,145.08a.14.14,0,0,1-.06.11h0l-.44,0a4.57,4.57,0,0,1-.83,0l-.38-.08-.08,0-.26-.09-.11,0-.06,0h0c-.14-.14-.12-.08-.31-.26a.08.08,0,0,1,0,0,4.15,4.15,0,0,1-.55-.69l-.17-.27,0,.06.06.06c.07.05.13.12.19.16a3.56,3.56,0,0,0,.5.39h0l.16.1a1.36,1.36,0,0,0,.24.13,0,0,0,0,0,0,0,2.09,2.09,0,0,0,.41.17,3,3,0,0,0,.39.13A3.89,3.89,0,0,0,200,145h.06S200.15,145,200.15,145.08Z" transform="translate(-21.33 -36.39)"/></svg>